ISO-10303-21;
HEADER;
/* Generated by software containing ST-Developer
 * from STEP Tools, Inc. (www.steptools.com) 
 */

FILE_DESCRIPTION(
/* description */ (''),
/* implementation_level */ '2;1');

FILE_NAME(
/* name */ 'robot remote CASE.step',
/* time_stamp */ '2026-03-09T07:24:47Z',
/* author */ (''),
/* organization */ (''),
/* preprocessor_version */ 'ST-DEVELOPER v20.1',
/* originating_system */ 'Autodesk Translation Framework v14.24.0.0',
/* authorisation */ '');

FILE_SCHEMA (('AUTOMOTIVE_DESIGN { 1 0 10303 214 3 1 1 }'));
ENDSEC;

DATA;
#10=MECHANICAL_DESIGN_GEOMETRIC_PRESENTATION_REPRESENTATION('',(#13),#1154);
#11=SHAPE_REPRESENTATION_RELATIONSHIP('SRR','None',#1160,#12);
#12=ADVANCED_BREP_SHAPE_REPRESENTATION('',(#14),#1153);
#13=STYLED_ITEM('',(#1170),#14);
#14=MANIFOLD_SOLID_BREP('Body2',#690);
#15=FACE_BOUND('',#121,.T.);
#16=FACE_BOUND('',#123,.T.);
#17=FACE_BOUND('',#127,.T.);
#18=FACE_BOUND('',#129,.T.);
#19=FACE_BOUND('',#133,.T.);
#20=FACE_BOUND('',#135,.T.);
#21=FACE_BOUND('',#139,.T.);
#22=FACE_BOUND('',#141,.T.);
#23=FACE_BOUND('',#152,.T.);
#24=FACE_BOUND('',#153,.T.);
#25=FACE_BOUND('',#154,.T.);
#26=FACE_BOUND('',#155,.T.);
#27=FACE_BOUND('',#160,.T.);
#28=FACE_BOUND('',#165,.T.);
#29=FACE_BOUND('',#167,.T.);
#30=CIRCLE('',#702,1.42298450937126);
#31=CIRCLE('',#703,1.42298450937126);
#32=CIRCLE('',#705,0.761577293563818);
#33=CIRCLE('',#707,0.761577293563818);
#34=CIRCLE('',#709,0.761577293563818);
#35=CIRCLE('',#711,1.47276458979324);
#36=CIRCLE('',#712,1.47276458979324);
#37=CIRCLE('',#714,0.844536879994173);
#38=CIRCLE('',#716,0.844536879994173);
#39=CIRCLE('',#718,0.844536879994173);
#40=CIRCLE('',#720,1.38924256188927);
#41=CIRCLE('',#721,1.38924256188927);
#42=CIRCLE('',#723,0.721110238974729);
#43=CIRCLE('',#725,0.721110238974729);
#44=CIRCLE('',#727,0.721110238974729);
#45=CIRCLE('',#729,1.29102733321098);
#46=CIRCLE('',#730,1.29102733321098);
#47=CIRCLE('',#732,0.776458654573169);
#48=CIRCLE('',#734,0.776458654573169);
#49=CIRCLE('',#736,0.776458654573169);
#50=CIRCLE('',#738,0.844536879994173);
#51=CIRCLE('',#741,0.761577293563818);
#52=CIRCLE('',#744,0.721110238974729);
#53=CIRCLE('',#747,0.776458654573169);
#54=CYLINDRICAL_SURFACE('',#701,1.42298450937126);
#55=CYLINDRICAL_SURFACE('',#708,0.761577293563818);
#56=CYLINDRICAL_SURFACE('',#710,1.47276458979324);
#57=CYLINDRICAL_SURFACE('',#717,0.844536879994173);
#58=CYLINDRICAL_SURFACE('',#719,1.38924256188927);
#59=CYLINDRICAL_SURFACE('',#726,0.721110238974729);
#60=CYLINDRICAL_SURFACE('',#728,1.29102733321098);
#61=CYLINDRICAL_SURFACE('',#735,0.776458654573169);
#62=CYLINDRICAL_SURFACE('',#737,0.844536879994173);
#63=CYLINDRICAL_SURFACE('',#740,0.761577293563818);
#64=CYLINDRICAL_SURFACE('',#743,0.721110238974729);
#65=CYLINDRICAL_SURFACE('',#746,0.776458654573169);
#66=FACE_OUTER_BOUND('',#110,.T.);
#67=FACE_OUTER_BOUND('',#111,.T.);
#68=FACE_OUTER_BOUND('',#112,.T.);
#69=FACE_OUTER_BOUND('',#113,.T.);
#70=FACE_OUTER_BOUND('',#114,.T.);
#71=FACE_OUTER_BOUND('',#115,.T.);
#72=FACE_OUTER_BOUND('',#116,.T.);
#73=FACE_OUTER_BOUND('',#117,.T.);
#74=FACE_OUTER_BOUND('',#118,.T.);
#75=FACE_OUTER_BOUND('',#119,.T.);
#76=FACE_OUTER_BOUND('',#120,.T.);
#77=FACE_OUTER_BOUND('',#122,.T.);
#78=FACE_OUTER_BOUND('',#124,.T.);
#79=FACE_OUTER_BOUND('',#125,.T.);
#80=FACE_OUTER_BOUND('',#126,.T.);
#81=FACE_OUTER_BOUND('',#128,.T.);
#82=FACE_OUTER_BOUND('',#130,.T.);
#83=FACE_OUTER_BOUND('',#131,.T.);
#84=FACE_OUTER_BOUND('',#132,.T.);
#85=FACE_OUTER_BOUND('',#134,.T.);
#86=FACE_OUTER_BOUND('',#136,.T.);
#87=FACE_OUTER_BOUND('',#137,.T.);
#88=FACE_OUTER_BOUND('',#138,.T.);
#89=FACE_OUTER_BOUND('',#140,.T.);
#90=FACE_OUTER_BOUND('',#142,.T.);
#91=FACE_OUTER_BOUND('',#143,.T.);
#92=FACE_OUTER_BOUND('',#144,.T.);
#93=FACE_OUTER_BOUND('',#145,.T.);
#94=FACE_OUTER_BOUND('',#146,.T.);
#95=FACE_OUTER_BOUND('',#147,.T.);
#96=FACE_OUTER_BOUND('',#148,.T.);
#97=FACE_OUTER_BOUND('',#149,.T.);
#98=FACE_OUTER_BOUND('',#150,.T.);
#99=FACE_OUTER_BOUND('',#151,.T.);
#100=FACE_OUTER_BOUND('',#156,.T.);
#101=FACE_OUTER_BOUND('',#157,.T.);
#102=FACE_OUTER_BOUND('',#158,.T.);
#103=FACE_OUTER_BOUND('',#159,.T.);
#104=FACE_OUTER_BOUND('',#161,.T.);
#105=FACE_OUTER_BOUND('',#162,.T.);
#106=FACE_OUTER_BOUND('',#163,.T.);
#107=FACE_OUTER_BOUND('',#164,.T.);
#108=FACE_OUTER_BOUND('',#166,.T.);
#109=FACE_OUTER_BOUND('',#168,.T.);
#110=EDGE_LOOP('',(#440,#441,#442,#443));
#111=EDGE_LOOP('',(#444,#445,#446,#447));
#112=EDGE_LOOP('',(#448,#449,#450,#451));
#113=EDGE_LOOP('',(#452,#453,#454,#455));
#114=EDGE_LOOP('',(#456,#457,#458,#459));
#115=EDGE_LOOP('',(#460,#461,#462,#463));
#116=EDGE_LOOP('',(#464,#465,#466,#467));
#117=EDGE_LOOP('',(#468,#469,#470,#471));
#118=EDGE_LOOP('',(#472,#473,#474,#475));
#119=EDGE_LOOP('',(#476,#477,#478,#479));
#120=EDGE_LOOP('',(#480,#481));
#121=EDGE_LOOP('',(#482));
#122=EDGE_LOOP('',(#483,#484));
#123=EDGE_LOOP('',(#485));
#124=EDGE_LOOP('',(#486,#487,#488,#489));
#125=EDGE_LOOP('',(#490,#491,#492,#493));
#126=EDGE_LOOP('',(#494));
#127=EDGE_LOOP('',(#495));
#128=EDGE_LOOP('',(#496));
#129=EDGE_LOOP('',(#497));
#130=EDGE_LOOP('',(#498,#499,#500,#501));
#131=EDGE_LOOP('',(#502,#503,#504,#505));
#132=EDGE_LOOP('',(#506));
#133=EDGE_LOOP('',(#507));
#134=EDGE_LOOP('',(#508));
#135=EDGE_LOOP('',(#509));
#136=EDGE_LOOP('',(#510,#511,#512,#513));
#137=EDGE_LOOP('',(#514,#515,#516,#517));
#138=EDGE_LOOP('',(#518));
#139=EDGE_LOOP('',(#519));
#140=EDGE_LOOP('',(#520));
#141=EDGE_LOOP('',(#521));
#142=EDGE_LOOP('',(#522,#523,#524,#525));
#143=EDGE_LOOP('',(#526,#527,#528,#529));
#144=EDGE_LOOP('',(#530));
#145=EDGE_LOOP('',(#531,#532,#533,#534));
#146=EDGE_LOOP('',(#535));
#147=EDGE_LOOP('',(#536,#537,#538,#539));
#148=EDGE_LOOP('',(#540));
#149=EDGE_LOOP('',(#541,#542,#543,#544));
#150=EDGE_LOOP('',(#545));
#151=EDGE_LOOP('',(#546,#547,#548,#549));
#152=EDGE_LOOP('',(#550));
#153=EDGE_LOOP('',(#551));
#154=EDGE_LOOP('',(#552));
#155=EDGE_LOOP('',(#553));
#156=EDGE_LOOP('',(#554,#555,#556,#557));
#157=EDGE_LOOP('',(#558,#559,#560,#561));
#158=EDGE_LOOP('',(#562,#563,#564,#565));
#159=EDGE_LOOP('',(#566,#567,#568,#569));
#160=EDGE_LOOP('',(#570,#571,#572,#573,#574,#575,#576,#577));
#161=EDGE_LOOP('',(#578,#579,#580,#581));
#162=EDGE_LOOP('',(#582,#583,#584,#585));
#163=EDGE_LOOP('',(#586,#587,#588,#589));
#164=EDGE_LOOP('',(#590,#591,#592,#593));
#165=EDGE_LOOP('',(#594,#595,#596,#597,#598,#599,#600,#601));
#166=EDGE_LOOP('',(#602,#603,#604,#605));
#167=EDGE_LOOP('',(#606,#607,#608,#609));
#168=EDGE_LOOP('',(#610,#611,#612,#613));
#169=LINE('',#965,#232);
#170=LINE('',#967,#233);
#171=LINE('',#969,#234);
#172=LINE('',#970,#235);
#173=LINE('',#973,#236);
#174=LINE('',#975,#237);
#175=LINE('',#976,#238);
#176=LINE('',#979,#239);
#177=LINE('',#981,#240);
#178=LINE('',#982,#241);
#179=LINE('',#985,#242);
#180=LINE('',#987,#243);
#181=LINE('',#988,#244);
#182=LINE('',#991,#245);
#183=LINE('',#993,#246);
#184=LINE('',#994,#247);
#185=LINE('',#997,#248);
#186=LINE('',#999,#249);
#187=LINE('',#1000,#250);
#188=LINE('',#1003,#251);
#189=LINE('',#1005,#252);
#190=LINE('',#1006,#253);
#191=LINE('',#1008,#254);
#192=LINE('',#1009,#255);
#193=LINE('',#1013,#256);
#194=LINE('',#1015,#257);
#195=LINE('',#1017,#258);
#196=LINE('',#1018,#259);
#197=LINE('',#1030,#260);
#198=LINE('',#1036,#261);
#199=LINE('',#1046,#262);
#200=LINE('',#1052,#263);
#201=LINE('',#1062,#264);
#202=LINE('',#1068,#265);
#203=LINE('',#1078,#266);
#204=LINE('',#1083,#267);
#205=LINE('',#1088,#268);
#206=LINE('',#1093,#269);
#207=LINE('',#1098,#270);
#208=LINE('',#1103,#271);
#209=LINE('',#1105,#272);
#210=LINE('',#1107,#273);
#211=LINE('',#1108,#274);
#212=LINE('',#1111,#275);
#213=LINE('',#1113,#276);
#214=LINE('',#1114,#277);
#215=LINE('',#1117,#278);
#216=LINE('',#1118,#279);
#217=LINE('',#1121,#280);
#218=LINE('',#1122,#281);
#219=LINE('',#1124,#282);
#220=LINE('',#1128,#283);
#221=LINE('',#1130,#284);
#222=LINE('',#1132,#285);
#223=LINE('',#1133,#286);
#224=LINE('',#1136,#287);
#225=LINE('',#1138,#288);
#226=LINE('',#1139,#289);
#227=LINE('',#1142,#290);
#228=LINE('',#1144,#291);
#229=LINE('',#1145,#292);
#230=LINE('',#1147,#293);
#231=LINE('',#1148,#294);
#232=VECTOR('',#764,10.);
#233=VECTOR('',#765,10.);
#234=VECTOR('',#766,10.);
#235=VECTOR('',#767,10.);
#236=VECTOR('',#770,10.);
#237=VECTOR('',#771,10.);
#238=VECTOR('',#772,10.);
#239=VECTOR('',#775,10.);
#240=VECTOR('',#776,10.);
#241=VECTOR('',#777,10.);
#242=VECTOR('',#780,10.);
#243=VECTOR('',#781,10.);
#244=VECTOR('',#782,10.);
#245=VECTOR('',#785,10.);
#246=VECTOR('',#786,10.);
#247=VECTOR('',#787,10.);
#248=VECTOR('',#790,10.);
#249=VECTOR('',#791,10.);
#250=VECTOR('',#792,10.);
#251=VECTOR('',#795,10.);
#252=VECTOR('',#796,10.);
#253=VECTOR('',#797,10.);
#254=VECTOR('',#800,10.);
#255=VECTOR('',#801,10.);
#256=VECTOR('',#804,10.);
#257=VECTOR('',#805,10.);
#258=VECTOR('',#806,10.);
#259=VECTOR('',#807,10.);
#260=VECTOR('',#824,0.761577293563818);
#261=VECTOR('',#831,1.47276458979324);
#262=VECTOR('',#844,0.844536879994173);
#263=VECTOR('',#851,1.38924256188927);
#264=VECTOR('',#864,0.721110238974729);
#265=VECTOR('',#871,1.29102733321098);
#266=VECTOR('',#884,0.776458654573169);
#267=VECTOR('',#891,0.844536879994173);
#268=VECTOR('',#898,0.761577293563818);
#269=VECTOR('',#905,0.721110238974729);
#270=VECTOR('',#912,0.776458654573169);
#271=VECTOR('',#917,10.);
#272=VECTOR('',#918,10.);
#273=VECTOR('',#919,10.);
#274=VECTOR('',#920,10.);
#275=VECTOR('',#923,10.);
#276=VECTOR('',#924,10.);
#277=VECTOR('',#925,10.);
#278=VECTOR('',#928,10.);
#279=VECTOR('',#929,10.);
#280=VECTOR('',#932,10.);
#281=VECTOR('',#933,10.);
#282=VECTOR('',#936,10.);
#283=VECTOR('',#939,10.);
#284=VECTOR('',#940,10.);
#285=VECTOR('',#941,10.);
#286=VECTOR('',#942,10.);
#287=VECTOR('',#945,10.);
#288=VECTOR('',#946,10.);
#289=VECTOR('',#947,10.);
#290=VECTOR('',#950,10.);
#291=VECTOR('',#951,10.);
#292=VECTOR('',#952,10.);
#293=VECTOR('',#955,10.);
#294=VECTOR('',#956,10.);
#295=VERTEX_POINT('',#963);
#296=VERTEX_POINT('',#964);
#297=VERTEX_POINT('',#966);
#298=VERTEX_POINT('',#968);
#299=VERTEX_POINT('',#972);
#300=VERTEX_POINT('',#974);
#301=VERTEX_POINT('',#978);
#302=VERTEX_POINT('',#980);
#303=VERTEX_POINT('',#984);
#304=VERTEX_POINT('',#986);
#305=VERTEX_POINT('',#990);
#306=VERTEX_POINT('',#992);
#307=VERTEX_POINT('',#996);
#308=VERTEX_POINT('',#998);
#309=VERTEX_POINT('',#1002);
#310=VERTEX_POINT('',#1004);
#311=VERTEX_POINT('',#1011);
#312=VERTEX_POINT('',#1012);
#313=VERTEX_POINT('',#1014);
#314=VERTEX_POINT('',#1016);
#315=VERTEX_POINT('',#1023);
#316=VERTEX_POINT('',#1026);
#317=VERTEX_POINT('',#1029);
#318=VERTEX_POINT('',#1033);
#319=VERTEX_POINT('',#1035);
#320=VERTEX_POINT('',#1039);
#321=VERTEX_POINT('',#1042);
#322=VERTEX_POINT('',#1045);
#323=VERTEX_POINT('',#1049);
#324=VERTEX_POINT('',#1051);
#325=VERTEX_POINT('',#1055);
#326=VERTEX_POINT('',#1058);
#327=VERTEX_POINT('',#1061);
#328=VERTEX_POINT('',#1065);
#329=VERTEX_POINT('',#1067);
#330=VERTEX_POINT('',#1071);
#331=VERTEX_POINT('',#1074);
#332=VERTEX_POINT('',#1077);
#333=VERTEX_POINT('',#1081);
#334=VERTEX_POINT('',#1086);
#335=VERTEX_POINT('',#1091);
#336=VERTEX_POINT('',#1096);
#337=VERTEX_POINT('',#1101);
#338=VERTEX_POINT('',#1102);
#339=VERTEX_POINT('',#1104);
#340=VERTEX_POINT('',#1106);
#341=VERTEX_POINT('',#1110);
#342=VERTEX_POINT('',#1112);
#343=VERTEX_POINT('',#1116);
#344=VERTEX_POINT('',#1120);
#345=VERTEX_POINT('',#1126);
#346=VERTEX_POINT('',#1127);
#347=VERTEX_POINT('',#1129);
#348=VERTEX_POINT('',#1131);
#349=VERTEX_POINT('',#1135);
#350=VERTEX_POINT('',#1137);
#351=VERTEX_POINT('',#1141);
#352=VERTEX_POINT('',#1143);
#353=EDGE_CURVE('',#295,#296,#169,.T.);
#354=EDGE_CURVE('',#296,#297,#170,.T.);
#355=EDGE_CURVE('',#297,#298,#171,.T.);
#356=EDGE_CURVE('',#298,#295,#172,.T.);
#357=EDGE_CURVE('',#299,#296,#173,.T.);
#358=EDGE_CURVE('',#300,#299,#174,.T.);
#359=EDGE_CURVE('',#297,#300,#175,.T.);
#360=EDGE_CURVE('',#299,#301,#176,.T.);
#361=EDGE_CURVE('',#301,#302,#177,.T.);
#362=EDGE_CURVE('',#302,#300,#178,.T.);
#363=EDGE_CURVE('',#303,#301,#179,.T.);
#364=EDGE_CURVE('',#304,#303,#180,.T.);
#365=EDGE_CURVE('',#302,#304,#181,.T.);
#366=EDGE_CURVE('',#303,#305,#182,.T.);
#367=EDGE_CURVE('',#305,#306,#183,.T.);
#368=EDGE_CURVE('',#306,#304,#184,.T.);
#369=EDGE_CURVE('',#307,#305,#185,.T.);
#370=EDGE_CURVE('',#308,#307,#186,.T.);
#371=EDGE_CURVE('',#306,#308,#187,.T.);
#372=EDGE_CURVE('',#307,#309,#188,.T.);
#373=EDGE_CURVE('',#309,#310,#189,.T.);
#374=EDGE_CURVE('',#310,#308,#190,.T.);
#375=EDGE_CURVE('',#310,#298,#191,.T.);
#376=EDGE_CURVE('',#295,#309,#192,.T.);
#377=EDGE_CURVE('',#311,#312,#193,.T.);
#378=EDGE_CURVE('',#313,#311,#194,.T.);
#379=EDGE_CURVE('',#314,#313,#195,.T.);
#380=EDGE_CURVE('',#312,#314,#196,.T.);
#381=EDGE_CURVE('',#311,#313,#30,.T.);
#382=EDGE_CURVE('',#312,#314,#31,.T.);
#383=EDGE_CURVE('',#315,#315,#32,.T.);
#384=EDGE_CURVE('',#316,#316,#33,.T.);
#385=EDGE_CURVE('',#316,#317,#197,.T.);
#386=EDGE_CURVE('',#317,#317,#34,.T.);
#387=EDGE_CURVE('',#318,#318,#35,.T.);
#388=EDGE_CURVE('',#318,#319,#198,.T.);
#389=EDGE_CURVE('',#319,#319,#36,.T.);
#390=EDGE_CURVE('',#320,#320,#37,.T.);
#391=EDGE_CURVE('',#321,#321,#38,.T.);
#392=EDGE_CURVE('',#321,#322,#199,.T.);
#393=EDGE_CURVE('',#322,#322,#39,.T.);
#394=EDGE_CURVE('',#323,#323,#40,.T.);
#395=EDGE_CURVE('',#323,#324,#200,.T.);
#396=EDGE_CURVE('',#324,#324,#41,.T.);
#397=EDGE_CURVE('',#325,#325,#42,.T.);
#398=EDGE_CURVE('',#326,#326,#43,.T.);
#399=EDGE_CURVE('',#326,#327,#201,.T.);
#400=EDGE_CURVE('',#327,#327,#44,.T.);
#401=EDGE_CURVE('',#328,#328,#45,.T.);
#402=EDGE_CURVE('',#328,#329,#202,.T.);
#403=EDGE_CURVE('',#329,#329,#46,.T.);
#404=EDGE_CURVE('',#330,#330,#47,.T.);
#405=EDGE_CURVE('',#331,#331,#48,.T.);
#406=EDGE_CURVE('',#331,#332,#203,.T.);
#407=EDGE_CURVE('',#332,#332,#49,.T.);
#408=EDGE_CURVE('',#333,#333,#50,.T.);
#409=EDGE_CURVE('',#333,#320,#204,.T.);
#410=EDGE_CURVE('',#334,#334,#51,.T.);
#411=EDGE_CURVE('',#334,#315,#205,.T.);
#412=EDGE_CURVE('',#335,#335,#52,.T.);
#413=EDGE_CURVE('',#335,#325,#206,.T.);
#414=EDGE_CURVE('',#336,#336,#53,.T.);
#415=EDGE_CURVE('',#336,#330,#207,.T.);
#416=EDGE_CURVE('',#337,#338,#208,.T.);
#417=EDGE_CURVE('',#339,#337,#209,.T.);
#418=EDGE_CURVE('',#340,#339,#210,.T.);
#419=EDGE_CURVE('',#338,#340,#211,.T.);
#420=EDGE_CURVE('',#339,#341,#212,.T.);
#421=EDGE_CURVE('',#342,#341,#213,.T.);
#422=EDGE_CURVE('',#340,#342,#214,.T.);
#423=EDGE_CURVE('',#337,#343,#215,.T.);
#424=EDGE_CURVE('',#341,#343,#216,.T.);
#425=EDGE_CURVE('',#344,#342,#217,.T.);
#426=EDGE_CURVE('',#338,#344,#218,.T.);
#427=EDGE_CURVE('',#343,#344,#219,.T.);
#428=EDGE_CURVE('',#345,#346,#220,.T.);
#429=EDGE_CURVE('',#345,#347,#221,.T.);
#430=EDGE_CURVE('',#348,#347,#222,.T.);
#431=EDGE_CURVE('',#346,#348,#223,.T.);
#432=EDGE_CURVE('',#346,#349,#224,.T.);
#433=EDGE_CURVE('',#350,#348,#225,.T.);
#434=EDGE_CURVE('',#349,#350,#226,.T.);
#435=EDGE_CURVE('',#349,#351,#227,.T.);
#436=EDGE_CURVE('',#352,#350,#228,.T.);
#437=EDGE_CURVE('',#351,#352,#229,.T.);
#438=EDGE_CURVE('',#351,#345,#230,.T.);
#439=EDGE_CURVE('',#347,#352,#231,.T.);
#440=ORIENTED_EDGE('',*,*,#353,.T.);
#441=ORIENTED_EDGE('',*,*,#354,.T.);
#442=ORIENTED_EDGE('',*,*,#355,.T.);
#443=ORIENTED_EDGE('',*,*,#356,.T.);
#444=ORIENTED_EDGE('',*,*,#354,.F.);
#445=ORIENTED_EDGE('',*,*,#357,.F.);
#446=ORIENTED_EDGE('',*,*,#358,.F.);
#447=ORIENTED_EDGE('',*,*,#359,.F.);
#448=ORIENTED_EDGE('',*,*,#360,.T.);
#449=ORIENTED_EDGE('',*,*,#361,.T.);
#450=ORIENTED_EDGE('',*,*,#362,.T.);
#451=ORIENTED_EDGE('',*,*,#358,.T.);
#452=ORIENTED_EDGE('',*,*,#361,.F.);
#453=ORIENTED_EDGE('',*,*,#363,.F.);
#454=ORIENTED_EDGE('',*,*,#364,.F.);
#455=ORIENTED_EDGE('',*,*,#365,.F.);
#456=ORIENTED_EDGE('',*,*,#366,.T.);
#457=ORIENTED_EDGE('',*,*,#367,.T.);
#458=ORIENTED_EDGE('',*,*,#368,.T.);
#459=ORIENTED_EDGE('',*,*,#364,.T.);
#460=ORIENTED_EDGE('',*,*,#367,.F.);
#461=ORIENTED_EDGE('',*,*,#369,.F.);
#462=ORIENTED_EDGE('',*,*,#370,.F.);
#463=ORIENTED_EDGE('',*,*,#371,.F.);
#464=ORIENTED_EDGE('',*,*,#372,.T.);
#465=ORIENTED_EDGE('',*,*,#373,.T.);
#466=ORIENTED_EDGE('',*,*,#374,.T.);
#467=ORIENTED_EDGE('',*,*,#370,.T.);
#468=ORIENTED_EDGE('',*,*,#356,.F.);
#469=ORIENTED_EDGE('',*,*,#375,.F.);
#470=ORIENTED_EDGE('',*,*,#373,.F.);
#471=ORIENTED_EDGE('',*,*,#376,.F.);
#472=ORIENTED_EDGE('',*,*,#377,.F.);
#473=ORIENTED_EDGE('',*,*,#378,.F.);
#474=ORIENTED_EDGE('',*,*,#379,.F.);
#475=ORIENTED_EDGE('',*,*,#380,.F.);
#476=ORIENTED_EDGE('',*,*,#379,.T.);
#477=ORIENTED_EDGE('',*,*,#381,.F.);
#478=ORIENTED_EDGE('',*,*,#377,.T.);
#479=ORIENTED_EDGE('',*,*,#382,.T.);
#480=ORIENTED_EDGE('',*,*,#378,.T.);
#481=ORIENTED_EDGE('',*,*,#381,.T.);
#482=ORIENTED_EDGE('',*,*,#383,.F.);
#483=ORIENTED_EDGE('',*,*,#380,.T.);
#484=ORIENTED_EDGE('',*,*,#382,.F.);
#485=ORIENTED_EDGE('',*,*,#384,.F.);
#486=ORIENTED_EDGE('',*,*,#384,.T.);
#487=ORIENTED_EDGE('',*,*,#385,.T.);
#488=ORIENTED_EDGE('',*,*,#386,.F.);
#489=ORIENTED_EDGE('',*,*,#385,.F.);
#490=ORIENTED_EDGE('',*,*,#387,.F.);
#491=ORIENTED_EDGE('',*,*,#388,.T.);
#492=ORIENTED_EDGE('',*,*,#389,.T.);
#493=ORIENTED_EDGE('',*,*,#388,.F.);
#494=ORIENTED_EDGE('',*,*,#387,.T.);
#495=ORIENTED_EDGE('',*,*,#390,.F.);
#496=ORIENTED_EDGE('',*,*,#389,.F.);
#497=ORIENTED_EDGE('',*,*,#391,.F.);
#498=ORIENTED_EDGE('',*,*,#391,.T.);
#499=ORIENTED_EDGE('',*,*,#392,.T.);
#500=ORIENTED_EDGE('',*,*,#393,.F.);
#501=ORIENTED_EDGE('',*,*,#392,.F.);
#502=ORIENTED_EDGE('',*,*,#394,.F.);
#503=ORIENTED_EDGE('',*,*,#395,.T.);
#504=ORIENTED_EDGE('',*,*,#396,.T.);
#505=ORIENTED_EDGE('',*,*,#395,.F.);
#506=ORIENTED_EDGE('',*,*,#394,.T.);
#507=ORIENTED_EDGE('',*,*,#397,.F.);
#508=ORIENTED_EDGE('',*,*,#396,.F.);
#509=ORIENTED_EDGE('',*,*,#398,.F.);
#510=ORIENTED_EDGE('',*,*,#398,.T.);
#511=ORIENTED_EDGE('',*,*,#399,.T.);
#512=ORIENTED_EDGE('',*,*,#400,.F.);
#513=ORIENTED_EDGE('',*,*,#399,.F.);
#514=ORIENTED_EDGE('',*,*,#401,.F.);
#515=ORIENTED_EDGE('',*,*,#402,.T.);
#516=ORIENTED_EDGE('',*,*,#403,.T.);
#517=ORIENTED_EDGE('',*,*,#402,.F.);
#518=ORIENTED_EDGE('',*,*,#401,.T.);
#519=ORIENTED_EDGE('',*,*,#404,.F.);
#520=ORIENTED_EDGE('',*,*,#403,.F.);
#521=ORIENTED_EDGE('',*,*,#405,.F.);
#522=ORIENTED_EDGE('',*,*,#405,.T.);
#523=ORIENTED_EDGE('',*,*,#406,.T.);
#524=ORIENTED_EDGE('',*,*,#407,.F.);
#525=ORIENTED_EDGE('',*,*,#406,.F.);
#526=ORIENTED_EDGE('',*,*,#408,.F.);
#527=ORIENTED_EDGE('',*,*,#409,.T.);
#528=ORIENTED_EDGE('',*,*,#390,.T.);
#529=ORIENTED_EDGE('',*,*,#409,.F.);
#530=ORIENTED_EDGE('',*,*,#408,.T.);
#531=ORIENTED_EDGE('',*,*,#410,.F.);
#532=ORIENTED_EDGE('',*,*,#411,.T.);
#533=ORIENTED_EDGE('',*,*,#383,.T.);
#534=ORIENTED_EDGE('',*,*,#411,.F.);
#535=ORIENTED_EDGE('',*,*,#410,.T.);
#536=ORIENTED_EDGE('',*,*,#412,.F.);
#537=ORIENTED_EDGE('',*,*,#413,.T.);
#538=ORIENTED_EDGE('',*,*,#397,.T.);
#539=ORIENTED_EDGE('',*,*,#413,.F.);
#540=ORIENTED_EDGE('',*,*,#412,.T.);
#541=ORIENTED_EDGE('',*,*,#414,.F.);
#542=ORIENTED_EDGE('',*,*,#415,.T.);
#543=ORIENTED_EDGE('',*,*,#404,.T.);
#544=ORIENTED_EDGE('',*,*,#415,.F.);
#545=ORIENTED_EDGE('',*,*,#414,.T.);
#546=ORIENTED_EDGE('',*,*,#416,.F.);
#547=ORIENTED_EDGE('',*,*,#417,.F.);
#548=ORIENTED_EDGE('',*,*,#418,.F.);
#549=ORIENTED_EDGE('',*,*,#419,.F.);
#550=ORIENTED_EDGE('',*,*,#393,.T.);
#551=ORIENTED_EDGE('',*,*,#386,.T.);
#552=ORIENTED_EDGE('',*,*,#400,.T.);
#553=ORIENTED_EDGE('',*,*,#407,.T.);
#554=ORIENTED_EDGE('',*,*,#418,.T.);
#555=ORIENTED_EDGE('',*,*,#420,.T.);
#556=ORIENTED_EDGE('',*,*,#421,.F.);
#557=ORIENTED_EDGE('',*,*,#422,.F.);
#558=ORIENTED_EDGE('',*,*,#417,.T.);
#559=ORIENTED_EDGE('',*,*,#423,.T.);
#560=ORIENTED_EDGE('',*,*,#424,.F.);
#561=ORIENTED_EDGE('',*,*,#420,.F.);
#562=ORIENTED_EDGE('',*,*,#419,.T.);
#563=ORIENTED_EDGE('',*,*,#422,.T.);
#564=ORIENTED_EDGE('',*,*,#425,.F.);
#565=ORIENTED_EDGE('',*,*,#426,.F.);
#566=ORIENTED_EDGE('',*,*,#416,.T.);
#567=ORIENTED_EDGE('',*,*,#426,.T.);
#568=ORIENTED_EDGE('',*,*,#427,.F.);
#569=ORIENTED_EDGE('',*,*,#423,.F.);
#570=ORIENTED_EDGE('',*,*,#359,.T.);
#571=ORIENTED_EDGE('',*,*,#362,.F.);
#572=ORIENTED_EDGE('',*,*,#365,.T.);
#573=ORIENTED_EDGE('',*,*,#368,.F.);
#574=ORIENTED_EDGE('',*,*,#371,.T.);
#575=ORIENTED_EDGE('',*,*,#374,.F.);
#576=ORIENTED_EDGE('',*,*,#375,.T.);
#577=ORIENTED_EDGE('',*,*,#355,.F.);
#578=ORIENTED_EDGE('',*,*,#428,.F.);
#579=ORIENTED_EDGE('',*,*,#429,.T.);
#580=ORIENTED_EDGE('',*,*,#430,.F.);
#581=ORIENTED_EDGE('',*,*,#431,.F.);
#582=ORIENTED_EDGE('',*,*,#432,.F.);
#583=ORIENTED_EDGE('',*,*,#431,.T.);
#584=ORIENTED_EDGE('',*,*,#433,.F.);
#585=ORIENTED_EDGE('',*,*,#434,.F.);
#586=ORIENTED_EDGE('',*,*,#435,.F.);
#587=ORIENTED_EDGE('',*,*,#434,.T.);
#588=ORIENTED_EDGE('',*,*,#436,.F.);
#589=ORIENTED_EDGE('',*,*,#437,.F.);
#590=ORIENTED_EDGE('',*,*,#438,.F.);
#591=ORIENTED_EDGE('',*,*,#437,.T.);
#592=ORIENTED_EDGE('',*,*,#439,.F.);
#593=ORIENTED_EDGE('',*,*,#429,.F.);
#594=ORIENTED_EDGE('',*,*,#357,.T.);
#595=ORIENTED_EDGE('',*,*,#353,.F.);
#596=ORIENTED_EDGE('',*,*,#376,.T.);
#597=ORIENTED_EDGE('',*,*,#372,.F.);
#598=ORIENTED_EDGE('',*,*,#369,.T.);
#599=ORIENTED_EDGE('',*,*,#366,.F.);
#600=ORIENTED_EDGE('',*,*,#363,.T.);
#601=ORIENTED_EDGE('',*,*,#360,.F.);
#602=ORIENTED_EDGE('',*,*,#439,.T.);
#603=ORIENTED_EDGE('',*,*,#436,.T.);
#604=ORIENTED_EDGE('',*,*,#433,.T.);
#605=ORIENTED_EDGE('',*,*,#430,.T.);
#606=ORIENTED_EDGE('',*,*,#427,.T.);
#607=ORIENTED_EDGE('',*,*,#425,.T.);
#608=ORIENTED_EDGE('',*,*,#421,.T.);
#609=ORIENTED_EDGE('',*,*,#424,.T.);
#610=ORIENTED_EDGE('',*,*,#438,.T.);
#611=ORIENTED_EDGE('',*,*,#428,.T.);
#612=ORIENTED_EDGE('',*,*,#432,.T.);
#613=ORIENTED_EDGE('',*,*,#435,.T.);
#614=PLANE('',#692);
#615=PLANE('',#693);
#616=PLANE('',#694);
#617=PLANE('',#695);
#618=PLANE('',#696);
#619=PLANE('',#697);
#620=PLANE('',#698);
#621=PLANE('',#699);
#622=PLANE('',#700);
#623=PLANE('',#704);
#624=PLANE('',#706);
#625=PLANE('',#713);
#626=PLANE('',#715);
#627=PLANE('',#722);
#628=PLANE('',#724);
#629=PLANE('',#731);
#630=PLANE('',#733);
#631=PLANE('',#739);
#632=PLANE('',#742);
#633=PLANE('',#745);
#634=PLANE('',#748);
#635=PLANE('',#749);
#636=PLANE('',#750);
#637=PLANE('',#751);
#638=PLANE('',#752);
#639=PLANE('',#753);
#640=PLANE('',#754);
#641=PLANE('',#755);
#642=PLANE('',#756);
#643=PLANE('',#757);
#644=PLANE('',#758);
#645=PLANE('',#759);
#646=ADVANCED_FACE('',(#66),#614,.T.);
#647=ADVANCED_FACE('',(#67),#615,.F.);
#648=ADVANCED_FACE('',(#68),#616,.T.);
#649=ADVANCED_FACE('',(#69),#617,.F.);
#650=ADVANCED_FACE('',(#70),#618,.T.);
#651=ADVANCED_FACE('',(#71),#619,.F.);
#652=ADVANCED_FACE('',(#72),#620,.T.);
#653=ADVANCED_FACE('',(#73),#621,.F.);
#654=ADVANCED_FACE('',(#74),#622,.F.);
#655=ADVANCED_FACE('',(#75),#54,.T.);
#656=ADVANCED_FACE('',(#76,#15),#623,.T.);
#657=ADVANCED_FACE('',(#77,#16),#624,.F.);
#658=ADVANCED_FACE('',(#78),#55,.T.);
#659=ADVANCED_FACE('',(#79),#56,.T.);
#660=ADVANCED_FACE('',(#80,#17),#625,.T.);
#661=ADVANCED_FACE('',(#81,#18),#626,.F.);
#662=ADVANCED_FACE('',(#82),#57,.T.);
#663=ADVANCED_FACE('',(#83),#58,.T.);
#664=ADVANCED_FACE('',(#84,#19),#627,.T.);
#665=ADVANCED_FACE('',(#85,#20),#628,.F.);
#666=ADVANCED_FACE('',(#86),#59,.T.);
#667=ADVANCED_FACE('',(#87),#60,.T.);
#668=ADVANCED_FACE('',(#88,#21),#629,.T.);
#669=ADVANCED_FACE('',(#89,#22),#630,.F.);
#670=ADVANCED_FACE('',(#90),#61,.T.);
#671=ADVANCED_FACE('',(#91),#62,.T.);
#672=ADVANCED_FACE('',(#92),#631,.T.);
#673=ADVANCED_FACE('',(#93),#63,.T.);
#674=ADVANCED_FACE('',(#94),#632,.T.);
#675=ADVANCED_FACE('',(#95),#64,.T.);
#676=ADVANCED_FACE('',(#96),#633,.T.);
#677=ADVANCED_FACE('',(#97),#65,.T.);
#678=ADVANCED_FACE('',(#98),#634,.T.);
#679=ADVANCED_FACE('',(#99,#23,#24,#25,#26),#635,.T.);
#680=ADVANCED_FACE('',(#100),#636,.T.);
#681=ADVANCED_FACE('',(#101),#637,.T.);
#682=ADVANCED_FACE('',(#102),#638,.T.);
#683=ADVANCED_FACE('',(#103,#27),#639,.T.);
#684=ADVANCED_FACE('',(#104),#640,.T.);
#685=ADVANCED_FACE('',(#105),#641,.T.);
#686=ADVANCED_FACE('',(#106),#642,.T.);
#687=ADVANCED_FACE('',(#107,#28),#643,.T.);
#688=ADVANCED_FACE('',(#108,#29),#644,.T.);
#689=ADVANCED_FACE('',(#109),#645,.F.);
#690=CLOSED_SHELL('',(#646,#647,#648,#649,#650,#651,#652,#653,#654,#655,
#656,#657,#658,#659,#660,#661,#662,#663,#664,#665,#666,#667,#668,#669,#670,
#671,#672,#673,#674,#675,#676,#677,#678,#679,#680,#681,#682,#683,#684,#685,
#686,#687,#688,#689));
#691=AXIS2_PLACEMENT_3D('',#961,#760,#761);
#692=AXIS2_PLACEMENT_3D('',#962,#762,#763);
#693=AXIS2_PLACEMENT_3D('',#971,#768,#769);
#694=AXIS2_PLACEMENT_3D('',#977,#773,#774);
#695=AXIS2_PLACEMENT_3D('',#983,#778,#779);
#696=AXIS2_PLACEMENT_3D('',#989,#783,#784);
#697=AXIS2_PLACEMENT_3D('',#995,#788,#789);
#698=AXIS2_PLACEMENT_3D('',#1001,#793,#794);
#699=AXIS2_PLACEMENT_3D('',#1007,#798,#799);
#700=AXIS2_PLACEMENT_3D('',#1010,#802,#803);
#701=AXIS2_PLACEMENT_3D('',#1019,#808,#809);
#702=AXIS2_PLACEMENT_3D('',#1020,#810,#811);
#703=AXIS2_PLACEMENT_3D('',#1021,#812,#813);
#704=AXIS2_PLACEMENT_3D('',#1022,#814,#815);
#705=AXIS2_PLACEMENT_3D('',#1024,#816,#817);
#706=AXIS2_PLACEMENT_3D('',#1025,#818,#819);
#707=AXIS2_PLACEMENT_3D('',#1027,#820,#821);
#708=AXIS2_PLACEMENT_3D('',#1028,#822,#823);
#709=AXIS2_PLACEMENT_3D('',#1031,#825,#826);
#710=AXIS2_PLACEMENT_3D('',#1032,#827,#828);
#711=AXIS2_PLACEMENT_3D('',#1034,#829,#830);
#712=AXIS2_PLACEMENT_3D('',#1037,#832,#833);
#713=AXIS2_PLACEMENT_3D('',#1038,#834,#835);
#714=AXIS2_PLACEMENT_3D('',#1040,#836,#837);
#715=AXIS2_PLACEMENT_3D('',#1041,#838,#839);
#716=AXIS2_PLACEMENT_3D('',#1043,#840,#841);
#717=AXIS2_PLACEMENT_3D('',#1044,#842,#843);
#718=AXIS2_PLACEMENT_3D('',#1047,#845,#846);
#719=AXIS2_PLACEMENT_3D('',#1048,#847,#848);
#720=AXIS2_PLACEMENT_3D('',#1050,#849,#850);
#721=AXIS2_PLACEMENT_3D('',#1053,#852,#853);
#722=AXIS2_PLACEMENT_3D('',#1054,#854,#855);
#723=AXIS2_PLACEMENT_3D('',#1056,#856,#857);
#724=AXIS2_PLACEMENT_3D('',#1057,#858,#859);
#725=AXIS2_PLACEMENT_3D('',#1059,#860,#861);
#726=AXIS2_PLACEMENT_3D('',#1060,#862,#863);
#727=AXIS2_PLACEMENT_3D('',#1063,#865,#866);
#728=AXIS2_PLACEMENT_3D('',#1064,#867,#868);
#729=AXIS2_PLACEMENT_3D('',#1066,#869,#870);
#730=AXIS2_PLACEMENT_3D('',#1069,#872,#873);
#731=AXIS2_PLACEMENT_3D('',#1070,#874,#875);
#732=AXIS2_PLACEMENT_3D('',#1072,#876,#877);
#733=AXIS2_PLACEMENT_3D('',#1073,#878,#879);
#734=AXIS2_PLACEMENT_3D('',#1075,#880,#881);
#735=AXIS2_PLACEMENT_3D('',#1076,#882,#883);
#736=AXIS2_PLACEMENT_3D('',#1079,#885,#886);
#737=AXIS2_PLACEMENT_3D('',#1080,#887,#888);
#738=AXIS2_PLACEMENT_3D('',#1082,#889,#890);
#739=AXIS2_PLACEMENT_3D('',#1084,#892,#893);
#740=AXIS2_PLACEMENT_3D('',#1085,#894,#895);
#741=AXIS2_PLACEMENT_3D('',#1087,#896,#897);
#742=AXIS2_PLACEMENT_3D('',#1089,#899,#900);
#743=AXIS2_PLACEMENT_3D('',#1090,#901,#902);
#744=AXIS2_PLACEMENT_3D('',#1092,#903,#904);
#745=AXIS2_PLACEMENT_3D('',#1094,#906,#907);
#746=AXIS2_PLACEMENT_3D('',#1095,#908,#909);
#747=AXIS2_PLACEMENT_3D('',#1097,#910,#911);
#748=AXIS2_PLACEMENT_3D('',#1099,#913,#914);
#749=AXIS2_PLACEMENT_3D('',#1100,#915,#916);
#750=AXIS2_PLACEMENT_3D('',#1109,#921,#922);
#751=AXIS2_PLACEMENT_3D('',#1115,#926,#927);
#752=AXIS2_PLACEMENT_3D('',#1119,#930,#931);
#753=AXIS2_PLACEMENT_3D('',#1123,#934,#935);
#754=AXIS2_PLACEMENT_3D('',#1125,#937,#938);
#755=AXIS2_PLACEMENT_3D('',#1134,#943,#944);
#756=AXIS2_PLACEMENT_3D('',#1140,#948,#949);
#757=AXIS2_PLACEMENT_3D('',#1146,#953,#954);
#758=AXIS2_PLACEMENT_3D('',#1149,#957,#958);
#759=AXIS2_PLACEMENT_3D('',#1150,#959,#960);
#760=DIRECTION('axis',(0.,0.,1.));
#761=DIRECTION('refdir',(1.,0.,0.));
#762=DIRECTION('center_axis',(-0.707106781186542,0.707106781186553,0.));
#763=DIRECTION('ref_axis',(0.,0.,1.));
#764=DIRECTION('',(0.707106781186553,0.707106781186542,0.));
#765=DIRECTION('',(0.,0.,-1.));
#766=DIRECTION('',(-0.707106781186553,-0.707106781186542,0.));
#767=DIRECTION('',(0.,0.,1.));
#768=DIRECTION('center_axis',(1.,0.,0.));
#769=DIRECTION('ref_axis',(0.,-1.,0.));
#770=DIRECTION('',(0.,-1.,0.));
#771=DIRECTION('',(0.,0.,1.));
#772=DIRECTION('',(0.,1.,0.));
#773=DIRECTION('center_axis',(-0.707106781186543,-0.707106781186552,0.));
#774=DIRECTION('ref_axis',(0.,0.,1.));
#775=DIRECTION('',(-0.707106781186552,0.707106781186543,0.));
#776=DIRECTION('',(0.,0.,-1.));
#777=DIRECTION('',(0.707106781186552,-0.707106781186543,0.));
#778=DIRECTION('center_axis',(0.,1.,0.));
#779=DIRECTION('ref_axis',(1.,0.,0.));
#780=DIRECTION('',(1.,0.,0.));
#781=DIRECTION('',(0.,0.,1.));
#782=DIRECTION('',(-1.,0.,0.));
#783=DIRECTION('center_axis',(0.707106781186549,-0.707106781186546,0.));
#784=DIRECTION('ref_axis',(0.,0.,-1.));
#785=DIRECTION('',(-0.707106781186546,-0.707106781186549,0.));
#786=DIRECTION('',(0.,0.,-1.));
#787=DIRECTION('',(0.707106781186546,0.707106781186549,0.));
#788=DIRECTION('center_axis',(-1.,0.,0.));
#789=DIRECTION('ref_axis',(0.,1.,0.));
#790=DIRECTION('',(0.,1.,0.));
#791=DIRECTION('',(0.,0.,1.));
#792=DIRECTION('',(0.,-1.,0.));
#793=DIRECTION('center_axis',(0.707106781186542,0.707106781186553,0.));
#794=DIRECTION('ref_axis',(0.,0.,-1.));
#795=DIRECTION('',(0.707106781186553,-0.707106781186542,0.));
#796=DIRECTION('',(0.,0.,-1.));
#797=DIRECTION('',(-0.707106781186553,0.707106781186542,0.));
#798=DIRECTION('center_axis',(0.,-1.,0.));
#799=DIRECTION('ref_axis',(-1.,0.,0.));
#800=DIRECTION('',(1.,0.,0.));
#801=DIRECTION('',(-1.,0.,0.));
#802=DIRECTION('center_axis',(0.,0.,-1.));
#803=DIRECTION('ref_axis',(-1.,0.,0.));
#804=DIRECTION('',(0.,-1.,0.));
#805=DIRECTION('',(1.,0.,0.));
#806=DIRECTION('',(0.,1.,0.));
#807=DIRECTION('',(-1.,0.,0.));
#808=DIRECTION('center_axis',(0.,1.,0.));
#809=DIRECTION('ref_axis',(-1.83697019872103E-16,0.,-1.));
#810=DIRECTION('center_axis',(0.,1.,0.));
#811=DIRECTION('ref_axis',(1.,0.,0.));
#812=DIRECTION('center_axis',(0.,1.,0.));
#813=DIRECTION('ref_axis',(1.,0.,0.));
#814=DIRECTION('center_axis',(0.,1.,0.));
#815=DIRECTION('ref_axis',(1.,0.,0.));
#816=DIRECTION('center_axis',(0.,1.,0.));
#817=DIRECTION('ref_axis',(-1.,0.,0.));
#818=DIRECTION('center_axis',(0.,1.,0.));
#819=DIRECTION('ref_axis',(1.,0.,0.));
#820=DIRECTION('center_axis',(0.,-1.,0.));
#821=DIRECTION('ref_axis',(-1.,0.,0.));
#822=DIRECTION('center_axis',(0.,1.,0.));
#823=DIRECTION('ref_axis',(-1.,0.,0.));
#824=DIRECTION('',(0.,-1.,0.));
#825=DIRECTION('center_axis',(0.,-1.,0.));
#826=DIRECTION('ref_axis',(-1.,0.,0.));
#827=DIRECTION('center_axis',(0.,1.,0.));
#828=DIRECTION('ref_axis',(1.,0.,0.));
#829=DIRECTION('center_axis',(0.,1.,0.));
#830=DIRECTION('ref_axis',(1.,0.,0.));
#831=DIRECTION('',(0.,-1.,0.));
#832=DIRECTION('center_axis',(0.,1.,0.));
#833=DIRECTION('ref_axis',(1.,0.,0.));
#834=DIRECTION('center_axis',(0.,1.,0.));
#835=DIRECTION('ref_axis',(1.,0.,0.));
#836=DIRECTION('center_axis',(0.,1.,0.));
#837=DIRECTION('ref_axis',(-1.,0.,0.));
#838=DIRECTION('center_axis',(0.,1.,0.));
#839=DIRECTION('ref_axis',(1.,0.,0.));
#840=DIRECTION('center_axis',(0.,-1.,0.));
#841=DIRECTION('ref_axis',(-1.,0.,0.));
#842=DIRECTION('center_axis',(0.,1.,0.));
#843=DIRECTION('ref_axis',(-1.,0.,0.));
#844=DIRECTION('',(0.,-1.,0.));
#845=DIRECTION('center_axis',(0.,-1.,0.));
#846=DIRECTION('ref_axis',(-1.,0.,0.));
#847=DIRECTION('center_axis',(0.,1.,0.));
#848=DIRECTION('ref_axis',(1.,0.,0.));
#849=DIRECTION('center_axis',(0.,1.,0.));
#850=DIRECTION('ref_axis',(1.,0.,0.));
#851=DIRECTION('',(0.,-1.,0.));
#852=DIRECTION('center_axis',(0.,1.,0.));
#853=DIRECTION('ref_axis',(1.,0.,0.));
#854=DIRECTION('center_axis',(0.,1.,0.));
#855=DIRECTION('ref_axis',(1.,0.,0.));
#856=DIRECTION('center_axis',(0.,1.,0.));
#857=DIRECTION('ref_axis',(-1.,0.,0.));
#858=DIRECTION('center_axis',(0.,1.,0.));
#859=DIRECTION('ref_axis',(1.,0.,0.));
#860=DIRECTION('center_axis',(0.,-1.,0.));
#861=DIRECTION('ref_axis',(-1.,0.,0.));
#862=DIRECTION('center_axis',(0.,1.,0.));
#863=DIRECTION('ref_axis',(-1.,0.,0.));
#864=DIRECTION('',(0.,-1.,0.));
#865=DIRECTION('center_axis',(0.,-1.,0.));
#866=DIRECTION('ref_axis',(-1.,0.,0.));
#867=DIRECTION('center_axis',(0.,1.,0.));
#868=DIRECTION('ref_axis',(1.,0.,0.));
#869=DIRECTION('center_axis',(0.,1.,0.));
#870=DIRECTION('ref_axis',(1.,0.,0.));
#871=DIRECTION('',(0.,-1.,0.));
#872=DIRECTION('center_axis',(0.,1.,0.));
#873=DIRECTION('ref_axis',(1.,0.,0.));
#874=DIRECTION('center_axis',(0.,1.,0.));
#875=DIRECTION('ref_axis',(1.,0.,0.));
#876=DIRECTION('center_axis',(0.,1.,0.));
#877=DIRECTION('ref_axis',(-1.,0.,0.));
#878=DIRECTION('center_axis',(0.,1.,0.));
#879=DIRECTION('ref_axis',(1.,0.,0.));
#880=DIRECTION('center_axis',(0.,-1.,0.));
#881=DIRECTION('ref_axis',(-1.,0.,0.));
#882=DIRECTION('center_axis',(0.,1.,0.));
#883=DIRECTION('ref_axis',(-1.,0.,0.));
#884=DIRECTION('',(0.,-1.,0.));
#885=DIRECTION('center_axis',(0.,-1.,0.));
#886=DIRECTION('ref_axis',(-1.,0.,0.));
#887=DIRECTION('center_axis',(0.,1.,0.));
#888=DIRECTION('ref_axis',(-1.,0.,0.));
#889=DIRECTION('center_axis',(0.,1.,0.));
#890=DIRECTION('ref_axis',(-1.,0.,0.));
#891=DIRECTION('',(0.,-1.,0.));
#892=DIRECTION('center_axis',(0.,1.,0.));
#893=DIRECTION('ref_axis',(-1.,0.,0.));
#894=DIRECTION('center_axis',(0.,1.,0.));
#895=DIRECTION('ref_axis',(-1.,0.,0.));
#896=DIRECTION('center_axis',(0.,1.,0.));
#897=DIRECTION('ref_axis',(-1.,0.,0.));
#898=DIRECTION('',(0.,-1.,0.));
#899=DIRECTION('center_axis',(0.,1.,0.));
#900=DIRECTION('ref_axis',(-1.,0.,0.));
#901=DIRECTION('center_axis',(0.,1.,0.));
#902=DIRECTION('ref_axis',(-1.,0.,0.));
#903=DIRECTION('center_axis',(0.,1.,0.));
#904=DIRECTION('ref_axis',(-1.,0.,0.));
#905=DIRECTION('',(0.,-1.,0.));
#906=DIRECTION('center_axis',(0.,1.,0.));
#907=DIRECTION('ref_axis',(-1.,0.,0.));
#908=DIRECTION('center_axis',(0.,1.,0.));
#909=DIRECTION('ref_axis',(-1.,0.,0.));
#910=DIRECTION('center_axis',(0.,1.,0.));
#911=DIRECTION('ref_axis',(-1.,0.,0.));
#912=DIRECTION('',(0.,-1.,0.));
#913=DIRECTION('center_axis',(0.,1.,0.));
#914=DIRECTION('ref_axis',(-1.,0.,0.));
#915=DIRECTION('center_axis',(0.,1.,0.));
#916=DIRECTION('ref_axis',(0.,0.,1.));
#917=DIRECTION('',(-1.,0.,0.));
#918=DIRECTION('',(0.,0.,1.));
#919=DIRECTION('',(1.,0.,0.));
#920=DIRECTION('',(0.,0.,-1.));
#921=DIRECTION('center_axis',(0.,0.,1.));
#922=DIRECTION('ref_axis',(1.,0.,0.));
#923=DIRECTION('',(0.,1.,0.));
#924=DIRECTION('',(1.,0.,0.));
#925=DIRECTION('',(0.,1.,0.));
#926=DIRECTION('center_axis',(-1.,0.,0.));
#927=DIRECTION('ref_axis',(0.,0.,1.));
#928=DIRECTION('',(0.,1.,0.));
#929=DIRECTION('',(0.,0.,1.));
#930=DIRECTION('center_axis',(1.,0.,0.));
#931=DIRECTION('ref_axis',(0.,0.,-1.));
#932=DIRECTION('',(0.,0.,-1.));
#933=DIRECTION('',(0.,1.,0.));
#934=DIRECTION('center_axis',(0.,0.,-1.));
#935=DIRECTION('ref_axis',(-1.,0.,0.));
#936=DIRECTION('',(-1.,0.,0.));
#937=DIRECTION('center_axis',(-1.,0.,0.));
#938=DIRECTION('ref_axis',(0.,0.,1.));
#939=DIRECTION('',(0.,0.,-1.));
#940=DIRECTION('',(0.,1.,0.));
#941=DIRECTION('',(0.,0.,1.));
#942=DIRECTION('',(0.,1.,0.));
#943=DIRECTION('center_axis',(0.,0.,-1.));
#944=DIRECTION('ref_axis',(-1.,0.,0.));
#945=DIRECTION('',(1.,0.,0.));
#946=DIRECTION('',(-1.,0.,0.));
#947=DIRECTION('',(0.,1.,0.));
#948=DIRECTION('center_axis',(1.,0.,0.));
#949=DIRECTION('ref_axis',(0.,0.,-1.));
#950=DIRECTION('',(0.,0.,1.));
#951=DIRECTION('',(0.,0.,-1.));
#952=DIRECTION('',(0.,1.,0.));
#953=DIRECTION('center_axis',(0.,0.,1.));
#954=DIRECTION('ref_axis',(1.,0.,0.));
#955=DIRECTION('',(-1.,0.,0.));
#956=DIRECTION('',(1.,0.,0.));
#957=DIRECTION('center_axis',(0.,1.,0.));
#958=DIRECTION('ref_axis',(0.,0.,1.));
#959=DIRECTION('center_axis',(0.,1.,0.));
#960=DIRECTION('ref_axis',(1.,0.,0.));
#961=CARTESIAN_POINT('',(0.,0.,0.));
#962=CARTESIAN_POINT('Origin',(208.664546955187,6.64275063548691,48.9817902206061));
#963=CARTESIAN_POINT('',(208.164546955187,6.14275063548691,48.9817902206061));
#964=CARTESIAN_POINT('',(209.164546955187,7.14275063548691,48.9817902206061));
#965=CARTESIAN_POINT('',(170.953483300721,-31.0683130189783,48.9817902206061));
#966=CARTESIAN_POINT('',(209.164546955187,7.14275063548691,44.1469618382937));
#967=CARTESIAN_POINT('',(209.164546955187,7.14275063548691,48.9817902206061));
#968=CARTESIAN_POINT('',(208.164546955187,6.14275063548691,44.1469618382937));
#969=CARTESIAN_POINT('',(212.079414913128,10.0576185934276,44.1469618382937));
#970=CARTESIAN_POINT('',(208.164546955187,6.14275063548691,48.9817902206061));
#971=CARTESIAN_POINT('Origin',(209.164546955187,13.,48.9817902206061));
#972=CARTESIAN_POINT('',(209.164546955187,12.,48.9817902206061));
#973=CARTESIAN_POINT('',(209.164546955187,6.5,48.9817902206061));
#974=CARTESIAN_POINT('',(209.164546955187,12.,44.1469618382937));
#975=CARTESIAN_POINT('',(209.164546955187,12.,48.9817902206061));
#976=CARTESIAN_POINT('',(209.164546955187,6.5,44.1469618382937));
#977=CARTESIAN_POINT('Origin',(208.664546955187,12.5,48.9817902206061));
#978=CARTESIAN_POINT('',(208.164546955187,13.,48.9817902206061));
#979=CARTESIAN_POINT('',(175.739170959593,45.4253759955935,48.9817902206061));
#980=CARTESIAN_POINT('',(208.164546955187,13.,44.1469618382937));
#981=CARTESIAN_POINT('',(208.164546955187,13.,48.9817902206061));
#982=CARTESIAN_POINT('',(216.865102572,4.29944438318761,44.1469618382937));
#983=CARTESIAN_POINT('Origin',(92.0770134007409,13.,48.9817902206061));
#984=CARTESIAN_POINT('',(93.0770134007409,13.,48.9817902206061));
#985=CARTESIAN_POINT('',(78.2700281867771,13.,48.9817902206061));
#986=CARTESIAN_POINT('',(93.0770134007409,13.,44.1469618382937));
#987=CARTESIAN_POINT('',(93.0770134007409,13.,48.9817902206061));
#988=CARTESIAN_POINT('',(160.521891411589,13.,44.1469618382937));
#989=CARTESIAN_POINT('Origin',(92.5770134007409,12.5,48.9817902206061));
#990=CARTESIAN_POINT('',(92.0770134007409,12.,48.9817902206061));
#991=CARTESIAN_POINT('',(82.423520793759,2.3465073930181,48.9817902206061));
#992=CARTESIAN_POINT('',(92.0770134007409,12.,44.1469618382937));
#993=CARTESIAN_POINT('',(92.0770134007409,12.,48.9817902206061));
#994=CARTESIAN_POINT('',(123.549452406165,43.472439005424,44.1469618382937));
#995=CARTESIAN_POINT('Origin',(92.0770134007409,6.14275063548691,48.9817902206061));
#996=CARTESIAN_POINT('',(92.0770134007409,7.14275063548691,48.9817902206061));
#997=CARTESIAN_POINT('',(92.0770134007409,3.07137531774345,48.9817902206061));
#998=CARTESIAN_POINT('',(92.0770134007409,7.14275063548691,44.1469618382937));
#999=CARTESIAN_POINT('',(92.0770134007409,7.14275063548691,48.9817902206061));
#1000=CARTESIAN_POINT('',(92.0770134007409,3.07137531774345,44.1469618382937));
#1001=CARTESIAN_POINT('Origin',(92.5770134007409,6.64275063548691,48.9817902206061));
#1002=CARTESIAN_POINT('',(93.0770134007409,6.14275063548691,48.9817902206061));
#1003=CARTESIAN_POINT('',(87.2092084526306,12.0105555835971,48.9817902206061));
#1004=CARTESIAN_POINT('',(93.0770134007409,6.14275063548691,44.1469618382937));
#1005=CARTESIAN_POINT('',(93.0770134007409,6.14275063548691,48.9817902206061));
#1006=CARTESIAN_POINT('',(128.335140065037,-29.1153760288088,44.1469618382937));
#1007=CARTESIAN_POINT('Origin',(209.164546955187,6.14275063548691,48.9817902206061));
#1008=CARTESIAN_POINT('',(219.065658188812,6.14275063548691,44.1469618382937));
#1009=CARTESIAN_POINT('',(136.813794964,6.14275063548691,48.9817902206061));
#1010=CARTESIAN_POINT('Origin',(150.620780177964,9.57137531774345,38.9817902206061));
#1011=CARTESIAN_POINT('',(94.5300324769269,13.,38.9817902206061));
#1012=CARTESIAN_POINT('',(94.5300324769269,12.,38.9817902206061));
#1013=CARTESIAN_POINT('',(94.5300324769269,12.,38.9817902206061));
#1014=CARTESIAN_POINT('',(92.4699633432974,13.,38.9817902206061));
#1015=CARTESIAN_POINT('',(122.060389044038,13.,38.9817902206061));
#1016=CARTESIAN_POINT('',(92.4699633432974,12.,38.9817902206061));
#1017=CARTESIAN_POINT('',(92.4699633432974,12.,38.9817902206061));
#1018=CARTESIAN_POINT('',(122.060389044038,12.,38.9817902206061));
#1019=CARTESIAN_POINT('Origin',(93.4999979101121,12.,37.9999991506338));
#1020=CARTESIAN_POINT('Origin',(93.4999979101121,13.,37.9999991506338));
#1021=CARTESIAN_POINT('Origin',(93.4999979101121,12.,37.9999991506338));
#1022=CARTESIAN_POINT('Origin',(93.4999979101121,13.,37.9999991506338));
#1023=CARTESIAN_POINT('',(94.261575203676,13.,37.9999991506338));
#1024=CARTESIAN_POINT('Origin',(93.4999979101121,13.,37.9999991506338));
#1025=CARTESIAN_POINT('Origin',(93.4999979101121,12.,37.9999991506338));
#1026=CARTESIAN_POINT('',(94.261575203676,12.,37.9999991506338));
#1027=CARTESIAN_POINT('Origin',(93.4999979101121,12.,37.9999991506338));
#1028=CARTESIAN_POINT('Origin',(93.4999979101121,2.,37.9999991506338));
#1029=CARTESIAN_POINT('',(94.261575203676,2.,37.9999991506338));
#1030=CARTESIAN_POINT('',(94.261575203676,2.,37.9999991506338));
#1031=CARTESIAN_POINT('Origin',(93.4999979101121,2.,37.9999991506338));
#1032=CARTESIAN_POINT('Origin',(221.5,12.,-13.0812226852159));
#1033=CARTESIAN_POINT('',(220.027235410207,13.,-13.0812226852159));
#1034=CARTESIAN_POINT('Origin',(221.5,13.,-13.0812226852159));
#1035=CARTESIAN_POINT('',(220.027235410207,12.,-13.0812226852159));
#1036=CARTESIAN_POINT('',(220.027235410207,12.,-13.0812226852159));
#1037=CARTESIAN_POINT('Origin',(221.5,12.,-13.0812226852159));
#1038=CARTESIAN_POINT('Origin',(221.5,13.,-13.0812226852159));
#1039=CARTESIAN_POINT('',(222.344536879994,13.,-13.0812226852159));
#1040=CARTESIAN_POINT('Origin',(221.5,13.,-13.0812226852159));
#1041=CARTESIAN_POINT('Origin',(221.5,12.,-13.0812226852159));
#1042=CARTESIAN_POINT('',(222.344536879994,12.,-13.0812226852159));
#1043=CARTESIAN_POINT('Origin',(221.5,12.,-13.0812226852159));
#1044=CARTESIAN_POINT('Origin',(221.5,2.,-13.0812226852159));
#1045=CARTESIAN_POINT('',(222.344536879994,2.,-13.0812226852159));
#1046=CARTESIAN_POINT('',(222.344536879994,2.,-13.0812226852159));
#1047=CARTESIAN_POINT('Origin',(221.5,2.,-13.0812226852159));
#1048=CARTESIAN_POINT('Origin',(77.1999982744455,12.,-12.6999997161329));
#1049=CARTESIAN_POINT('',(75.8107557125563,13.,-12.6999997161329));
#1050=CARTESIAN_POINT('Origin',(77.1999982744455,13.,-12.6999997161329));
#1051=CARTESIAN_POINT('',(75.8107557125563,12.,-12.6999997161329));
#1052=CARTESIAN_POINT('',(75.8107557125563,12.,-12.6999997161329));
#1053=CARTESIAN_POINT('Origin',(77.1999982744455,12.,-12.6999997161329));
#1054=CARTESIAN_POINT('Origin',(77.1999982744455,13.,-12.6999997161329));
#1055=CARTESIAN_POINT('',(77.9211085134203,13.,-12.6999997161329));
#1056=CARTESIAN_POINT('Origin',(77.1999982744455,13.,-12.6999997161329));
#1057=CARTESIAN_POINT('Origin',(77.1999982744455,12.,-12.6999997161329));
#1058=CARTESIAN_POINT('',(77.9211085134203,12.,-12.6999997161329));
#1059=CARTESIAN_POINT('Origin',(77.1999982744455,12.,-12.6999997161329));
#1060=CARTESIAN_POINT('Origin',(77.1999982744455,2.,-12.6999997161329));
#1061=CARTESIAN_POINT('',(77.9211085134203,2.,-12.6999997161329));
#1062=CARTESIAN_POINT('',(77.9211085134203,2.,-12.6999997161329));
#1063=CARTESIAN_POINT('Origin',(77.1999982744455,2.,-12.6999997161329));
#1064=CARTESIAN_POINT('Origin',(181.28,12.,37.4712363777005));
#1065=CARTESIAN_POINT('',(179.988972666789,13.,37.4712363777005));
#1066=CARTESIAN_POINT('Origin',(181.28,13.,37.4712363777005));
#1067=CARTESIAN_POINT('',(179.988972666789,12.,37.4712363777005));
#1068=CARTESIAN_POINT('',(179.988972666789,12.,37.4712363777005));
#1069=CARTESIAN_POINT('Origin',(181.28,12.,37.4712363777005));
#1070=CARTESIAN_POINT('Origin',(181.28,13.,37.4712363777005));
#1071=CARTESIAN_POINT('',(182.056458654573,13.,37.4712363777005));
#1072=CARTESIAN_POINT('Origin',(181.28,13.,37.4712363777005));
#1073=CARTESIAN_POINT('Origin',(181.28,12.,37.4712363777005));
#1074=CARTESIAN_POINT('',(182.056458654573,12.,37.4712363777005));
#1075=CARTESIAN_POINT('Origin',(181.28,12.,37.4712363777005));
#1076=CARTESIAN_POINT('Origin',(181.28,2.,37.4712363777005));
#1077=CARTESIAN_POINT('',(182.056458654573,2.,37.4712363777005));
#1078=CARTESIAN_POINT('',(182.056458654573,2.,37.4712363777005));
#1079=CARTESIAN_POINT('Origin',(181.28,2.,37.4712363777005));
#1080=CARTESIAN_POINT('Origin',(221.5,2.,-13.0812226852159));
#1081=CARTESIAN_POINT('',(222.344536879994,20.,-13.0812226852159));
#1082=CARTESIAN_POINT('Origin',(221.5,20.,-13.0812226852159));
#1083=CARTESIAN_POINT('',(222.344536879994,2.,-13.0812226852159));
#1084=CARTESIAN_POINT('Origin',(221.5,20.,-13.0812226852159));
#1085=CARTESIAN_POINT('Origin',(93.4999979101121,2.,37.9999991506338));
#1086=CARTESIAN_POINT('',(94.261575203676,20.,37.9999991506338));
#1087=CARTESIAN_POINT('Origin',(93.4999979101121,20.,37.9999991506338));
#1088=CARTESIAN_POINT('',(94.261575203676,2.,37.9999991506338));
#1089=CARTESIAN_POINT('Origin',(93.4999979101121,20.,37.9999991506338));
#1090=CARTESIAN_POINT('Origin',(77.1999982744455,2.,-12.6999997161329));
#1091=CARTESIAN_POINT('',(77.9211085134203,20.,-12.6999997161329));
#1092=CARTESIAN_POINT('Origin',(77.1999982744455,20.,-12.6999997161329));
#1093=CARTESIAN_POINT('',(77.9211085134203,2.,-12.6999997161329));
#1094=CARTESIAN_POINT('Origin',(77.1999982744455,20.,-12.6999997161329));
#1095=CARTESIAN_POINT('Origin',(181.28,2.,37.4712363777005));
#1096=CARTESIAN_POINT('',(182.056458654573,20.,37.4712363777005));
#1097=CARTESIAN_POINT('Origin',(181.28,20.,37.4712363777005));
#1098=CARTESIAN_POINT('',(182.056458654573,2.,37.4712363777005));
#1099=CARTESIAN_POINT('Origin',(181.28,20.,37.4712363777005));
#1100=CARTESIAN_POINT('Origin',(149.132529164953,2.,12.1265104517612));
#1101=CARTESIAN_POINT('',(228.966769422437,2.,44.1469618382937));
#1102=CARTESIAN_POINT('',(69.298288907469,2.,44.1469618382937));
#1103=CARTESIAN_POINT('',(189.049649293695,2.,44.1469618382937));
#1104=CARTESIAN_POINT('',(228.966769422437,2.,-19.8939409347712));
#1105=CARTESIAN_POINT('',(228.966769422437,2.,-3.88371524150498));
#1106=CARTESIAN_POINT('',(69.298288907469,2.,-19.8939409347712));
#1107=CARTESIAN_POINT('',(109.215409036211,2.,-19.8939409347712));
#1108=CARTESIAN_POINT('',(69.298288907469,2.,28.1367361450275));
#1109=CARTESIAN_POINT('Origin',(69.298288907469,0.,-19.8939409347712));
#1110=CARTESIAN_POINT('',(228.966769422437,20.,-19.8939409347712));
#1111=CARTESIAN_POINT('',(228.966769422437,0.,-19.8939409347712));
#1112=CARTESIAN_POINT('',(69.298288907469,20.,-19.8939409347712));
#1113=CARTESIAN_POINT('',(69.298288907469,20.,-19.8939409347712));
#1114=CARTESIAN_POINT('',(69.298288907469,0.,-19.8939409347712));
#1115=CARTESIAN_POINT('Origin',(228.966769422437,0.,-19.8939409347712));
#1116=CARTESIAN_POINT('',(228.966769422437,20.,44.1469618382937));
#1117=CARTESIAN_POINT('',(228.966769422437,0.,44.1469618382937));
#1118=CARTESIAN_POINT('',(228.966769422437,20.,-19.8939409347712));
#1119=CARTESIAN_POINT('Origin',(69.298288907469,0.,44.1469618382937));
#1120=CARTESIAN_POINT('',(69.298288907469,20.,44.1469618382937));
#1121=CARTESIAN_POINT('',(69.298288907469,20.,44.1469618382937));
#1122=CARTESIAN_POINT('',(69.298288907469,0.,44.1469618382937));
#1123=CARTESIAN_POINT('Origin',(228.966769422437,0.,44.1469618382937));
#1124=CARTESIAN_POINT('',(228.966769422437,20.,44.1469618382937));
#1125=CARTESIAN_POINT('Origin',(64.4630429728133,0.,-24.9431139067839));
#1126=CARTESIAN_POINT('',(64.4630429728133,0.,48.9817902206061));
#1127=CARTESIAN_POINT('',(64.4630429728133,0.,-24.9431139067839));
#1128=CARTESIAN_POINT('',(64.4630429728133,0.,48.9817902206061));
#1129=CARTESIAN_POINT('',(64.4630429728133,20.,48.9817902206061));
#1130=CARTESIAN_POINT('',(64.4630429728133,0.,48.9817902206061));
#1131=CARTESIAN_POINT('',(64.4630429728133,20.,-24.9431139067839));
#1132=CARTESIAN_POINT('',(64.4630429728133,20.,48.9817902206061));
#1133=CARTESIAN_POINT('',(64.4630429728133,0.,-24.9431139067839));
#1134=CARTESIAN_POINT('Origin',(233.840236583017,0.,-24.9431139067839));
#1135=CARTESIAN_POINT('',(233.840236583017,0.,-24.9431139067839));
#1136=CARTESIAN_POINT('',(64.4630429728133,0.,-24.9431139067839));
#1137=CARTESIAN_POINT('',(233.840236583017,20.,-24.9431139067839));
#1138=CARTESIAN_POINT('',(64.4630429728133,20.,-24.9431139067839));
#1139=CARTESIAN_POINT('',(233.840236583017,0.,-24.9431139067839));
#1140=CARTESIAN_POINT('Origin',(233.840236583017,0.,48.9817902206061));
#1141=CARTESIAN_POINT('',(233.840236583017,0.,48.9817902206061));
#1142=CARTESIAN_POINT('',(233.840236583017,0.,-24.9431139067839));
#1143=CARTESIAN_POINT('',(233.840236583017,20.,48.9817902206061));
#1144=CARTESIAN_POINT('',(233.840236583017,20.,-24.9431139067839));
#1145=CARTESIAN_POINT('',(233.840236583017,0.,48.9817902206061));
#1146=CARTESIAN_POINT('Origin',(64.4630429728133,0.,48.9817902206061));
#1147=CARTESIAN_POINT('',(233.840236583017,0.,48.9817902206061));
#1148=CARTESIAN_POINT('',(233.840236583017,20.,48.9817902206061));
#1149=CARTESIAN_POINT('Origin',(149.151639777915,20.,12.0193381569111));
#1150=CARTESIAN_POINT('Origin',(149.151639777915,0.,12.0193381569111));
#1151=UNCERTAINTY_MEASURE_WITH_UNIT(LENGTH_MEASURE(0.01),#1155,
'DISTANCE_ACCURACY_VALUE',
'Maximum model space distance between geometric entities at asserted c
onnectivities');
#1152=UNCERTAINTY_MEASURE_WITH_UNIT(LENGTH_MEASURE(0.01),#1155,
'DISTANCE_ACCURACY_VALUE',
'Maximum model space distance between geometric entities at asserted c
onnectivities');
#1153=(
GEOMETRIC_REPRESENTATION_CONTEXT(3)
GLOBAL_UNCERTAINTY_ASSIGNED_CONTEXT((#1151))
GLOBAL_UNIT_ASSIGNED_CONTEXT((#1155,#1156,#1157))
REPRESENTATION_CONTEXT('','3D')
);
#1154=(
GEOMETRIC_REPRESENTATION_CONTEXT(3)
GLOBAL_UNCERTAINTY_ASSIGNED_CONTEXT((#1152))
GLOBAL_UNIT_ASSIGNED_CONTEXT((#1155,#1156,#1157))
REPRESENTATION_CONTEXT('','3D')
);
#1155=(
LENGTH_UNIT()
NAMED_UNIT(*)
SI_UNIT(.MILLI.,.METRE.)
);
#1156=(
NAMED_UNIT(*)
PLANE_ANGLE_UNIT()
SI_UNIT($,.RADIAN.)
);
#1157=(
NAMED_UNIT(*)
SI_UNIT($,.STERADIAN.)
SOLID_ANGLE_UNIT()
);
#1158=SHAPE_DEFINITION_REPRESENTATION(#1159,#1160);
#1159=PRODUCT_DEFINITION_SHAPE('',$,#1162);
#1160=SHAPE_REPRESENTATION('',(#691),#1153);
#1161=PRODUCT_DEFINITION_CONTEXT('part definition',#1166,'design');
#1162=PRODUCT_DEFINITION('robot remote CASE','robot remote CASE v2',#1163,
#1161);
#1163=PRODUCT_DEFINITION_FORMATION('',$,#1168);
#1164=PRODUCT_RELATED_PRODUCT_CATEGORY('robot remote CASE v2',
'robot remote CASE v2',(#1168));
#1165=APPLICATION_PROTOCOL_DEFINITION('international standard',
'automotive_design',2009,#1166);
#1166=APPLICATION_CONTEXT(
'Core Data for Automotive Mechanical Design Process');
#1167=PRODUCT_CONTEXT('part definition',#1166,'mechanical');
#1168=PRODUCT('robot remote CASE','robot remote CASE v2',$,(#1167));
#1169=PRESENTATION_STYLE_ASSIGNMENT((#1171));
#1170=PRESENTATION_STYLE_ASSIGNMENT((#1172));
#1171=SURFACE_STYLE_USAGE(.BOTH.,#1173);
#1172=SURFACE_STYLE_USAGE(.BOTH.,#1174);
#1173=SURFACE_SIDE_STYLE('',(#1175));
#1174=SURFACE_SIDE_STYLE('',(#1176));
#1175=SURFACE_STYLE_FILL_AREA(#1177);
#1176=SURFACE_STYLE_FILL_AREA(#1178);
#1177=FILL_AREA_STYLE('Steel - Satin',(#1179));
#1178=FILL_AREA_STYLE('Plastic - Matte (Gray)',(#1180));
#1179=FILL_AREA_STYLE_COLOUR('Steel - Satin',#1181);
#1180=FILL_AREA_STYLE_COLOUR('Plastic - Matte (Gray)',#1182);
#1181=COLOUR_RGB('Steel - Satin',0.627450980392157,0.627450980392157,0.627450980392157);
#1182=COLOUR_RGB('Plastic - Matte (Gray)',0.701960784313725,0.701960784313725,
0.701960784313725);
ENDSEC;
END-ISO-10303-21;
